<mxfile host="app.diagrams.net" agent="Mozilla/5.0 (Windows NT 10.0; Win64; x64) AppleWebKit/537.36 (KHTML, like Gecko) Chrome/133.0.0.0 Safari/537.36 Edg/133.0.0.0" version="26.0.16">
  <diagram name="Page-1" id="gj5C86veSvw4NnuuL36q">
    <mxGraphModel grid="1" page="1" gridSize="10" guides="1" tooltips="1" connect="1" arrows="1" fold="1" pageScale="1" pageWidth="850" pageHeight="1100" math="0" shadow="0">
      <root>
        <mxCell id="0" />
        <mxCell id="1" parent="0" />
        <mxCell id="nJHEYNVm-RdAh5uVIcio-1" value="giao_vien" style="rounded=0;whiteSpace=wrap;html=1;fillColor=#FFFF33;" vertex="1" parent="1">
          <mxGeometry x="-35" y="2060" width="120" height="60" as="geometry" />
        </mxCell>
        <mxCell id="nJHEYNVm-RdAh5uVIcio-2" value="&lt;u&gt;ma_gv&lt;/u&gt;" style="ellipse;whiteSpace=wrap;html=1;fillColor=#f8cecc;strokeColor=#b85450;" vertex="1" parent="1">
          <mxGeometry x="-239.16" y="1930" width="110" height="60" as="geometry" />
        </mxCell>
        <mxCell id="nJHEYNVm-RdAh5uVIcio-3" value="(dia_chi)" style="ellipse;whiteSpace=wrap;html=1;" vertex="1" parent="1">
          <mxGeometry x="-210" y="1850" width="110" height="60" as="geometry" />
        </mxCell>
        <mxCell id="nJHEYNVm-RdAh5uVIcio-5" value="dien_thoai" style="ellipse;whiteSpace=wrap;html=1;" vertex="1" parent="1">
          <mxGeometry x="460" y="1990" width="110" height="60" as="geometry" />
        </mxCell>
        <mxCell id="nJHEYNVm-RdAh5uVIcio-6" value="ngay_sinh" style="ellipse;whiteSpace=wrap;html=1;" vertex="1" parent="1">
          <mxGeometry x="-110" y="1880" width="110" height="60" as="geometry" />
        </mxCell>
        <mxCell id="nJHEYNVm-RdAh5uVIcio-7" value="luong" style="ellipse;whiteSpace=wrap;html=1;" vertex="1" parent="1">
          <mxGeometry x="-14.159999999999997" y="1870" width="110" height="60" as="geometry" />
        </mxCell>
        <mxCell id="nJHEYNVm-RdAh5uVIcio-8" value="phai" style="ellipse;whiteSpace=wrap;html=1;" vertex="1" parent="1">
          <mxGeometry x="95.84" y="1910" width="110" height="60" as="geometry" />
        </mxCell>
        <mxCell id="nJHEYNVm-RdAh5uVIcio-9" value="" style="endArrow=none;html=1;rounded=0;entryX=0.451;entryY=1.009;entryDx=0;entryDy=0;entryPerimeter=0;" edge="1" parent="1" target="nJHEYNVm-RdAh5uVIcio-2">
          <mxGeometry width="50" height="50" relative="1" as="geometry">
            <mxPoint x="20" y="2050" as="sourcePoint" />
            <mxPoint x="70" y="2000" as="targetPoint" />
          </mxGeometry>
        </mxCell>
        <mxCell id="nJHEYNVm-RdAh5uVIcio-11" value="" style="endArrow=none;html=1;rounded=0;entryX=0.572;entryY=1.038;entryDx=0;entryDy=0;entryPerimeter=0;exitX=0.5;exitY=0;exitDx=0;exitDy=0;" edge="1" parent="1" source="nJHEYNVm-RdAh5uVIcio-1" target="nJHEYNVm-RdAh5uVIcio-3">
          <mxGeometry width="50" height="50" relative="1" as="geometry">
            <mxPoint x="80" y="2050" as="sourcePoint" />
            <mxPoint x="50" y="2001" as="targetPoint" />
          </mxGeometry>
        </mxCell>
        <mxCell id="nJHEYNVm-RdAh5uVIcio-16" value="" style="endArrow=none;html=1;rounded=0;exitX=0.5;exitY=0;exitDx=0;exitDy=0;entryX=0.246;entryY=0.833;entryDx=0;entryDy=0;entryPerimeter=0;" edge="1" parent="1" source="nJHEYNVm-RdAh5uVIcio-1" target="nJHEYNVm-RdAh5uVIcio-8">
          <mxGeometry width="50" height="50" relative="1" as="geometry">
            <mxPoint x="160" y="2140" as="sourcePoint" />
            <mxPoint x="210.00000000000003" y="2090" as="targetPoint" />
          </mxGeometry>
        </mxCell>
        <mxCell id="nJHEYNVm-RdAh5uVIcio-17" value="" style="endArrow=none;html=1;rounded=0;exitX=0.5;exitY=0;exitDx=0;exitDy=0;" edge="1" parent="1" source="nJHEYNVm-RdAh5uVIcio-1" target="nJHEYNVm-RdAh5uVIcio-6">
          <mxGeometry width="50" height="50" relative="1" as="geometry">
            <mxPoint x="45" y="2015" as="sourcePoint" />
            <mxPoint x="95" y="1965" as="targetPoint" />
          </mxGeometry>
        </mxCell>
        <mxCell id="nJHEYNVm-RdAh5uVIcio-18" value="" style="endArrow=none;html=1;rounded=0;exitX=0.5;exitY=0;exitDx=0;exitDy=0;entryX=0.288;entryY=0.969;entryDx=0;entryDy=0;entryPerimeter=0;" edge="1" parent="1" source="nJHEYNVm-RdAh5uVIcio-1" target="nJHEYNVm-RdAh5uVIcio-7">
          <mxGeometry width="50" height="50" relative="1" as="geometry">
            <mxPoint x="75" y="2040" as="sourcePoint" />
            <mxPoint x="125" y="1990" as="targetPoint" />
          </mxGeometry>
        </mxCell>
        <mxCell id="nJHEYNVm-RdAh5uVIcio-21" value="giaovien_dienthoai" style="rounded=0;whiteSpace=wrap;html=1;fillColor=light-dark(#FFFF00,#EDEDED);" vertex="1" parent="1">
          <mxGeometry x="400" y="2070" width="120" height="60" as="geometry" />
        </mxCell>
        <mxCell id="nJHEYNVm-RdAh5uVIcio-24" value="" style="endArrow=none;html=1;rounded=0;exitX=0.448;exitY=0.021;exitDx=0;exitDy=0;exitPerimeter=0;entryX=0.294;entryY=0.986;entryDx=0;entryDy=0;entryPerimeter=0;" edge="1" parent="1" source="nJHEYNVm-RdAh5uVIcio-21" target="nJHEYNVm-RdAh5uVIcio-5">
          <mxGeometry width="50" height="50" relative="1" as="geometry">
            <mxPoint x="439.16" y="2040" as="sourcePoint" />
            <mxPoint x="489.16" y="1990" as="targetPoint" />
          </mxGeometry>
        </mxCell>
        <mxCell id="nJHEYNVm-RdAh5uVIcio-25" value="bo_mon" style="rounded=0;whiteSpace=wrap;html=1;fillColor=#FFFF00;strokeColor=#36393d;" vertex="1" parent="1">
          <mxGeometry x="-170" y="2300" width="120" height="60" as="geometry" />
        </mxCell>
        <mxCell id="nJHEYNVm-RdAh5uVIcio-27" value="&lt;u&gt;ma_bm&lt;/u&gt;" style="ellipse;whiteSpace=wrap;html=1;fillColor=#f8cecc;strokeColor=#b85450;" vertex="1" parent="1">
          <mxGeometry x="-370" y="2090" width="110" height="60" as="geometry" />
        </mxCell>
        <mxCell id="nJHEYNVm-RdAh5uVIcio-28" value="ten_bm" style="ellipse;whiteSpace=wrap;html=1;" vertex="1" parent="1">
          <mxGeometry x="-250.84" y="2100" width="110" height="60" as="geometry" />
        </mxCell>
        <mxCell id="nJHEYNVm-RdAh5uVIcio-29" value="" style="endArrow=none;html=1;rounded=0;exitX=0.342;exitY=-0.014;exitDx=0;exitDy=0;exitPerimeter=0;entryX=0.5;entryY=1;entryDx=0;entryDy=0;" edge="1" parent="1" source="nJHEYNVm-RdAh5uVIcio-25" target="nJHEYNVm-RdAh5uVIcio-27">
          <mxGeometry width="50" height="50" relative="1" as="geometry">
            <mxPoint x="-110.84" y="2270" as="sourcePoint" />
            <mxPoint x="-60.84" y="2220" as="targetPoint" />
          </mxGeometry>
        </mxCell>
        <mxCell id="nJHEYNVm-RdAh5uVIcio-30" value="" style="endArrow=none;html=1;rounded=0;entryX=0.31;entryY=0.952;entryDx=0;entryDy=0;entryPerimeter=0;exitX=0.359;exitY=-0.002;exitDx=0;exitDy=0;exitPerimeter=0;" edge="1" parent="1" source="nJHEYNVm-RdAh5uVIcio-25" target="nJHEYNVm-RdAh5uVIcio-28">
          <mxGeometry width="50" height="50" relative="1" as="geometry">
            <mxPoint x="27.049999999999986" y="2260" as="sourcePoint" />
            <mxPoint x="77.04999999999998" y="2210" as="targetPoint" />
          </mxGeometry>
        </mxCell>
        <mxCell id="nJHEYNVm-RdAh5uVIcio-31" value="&lt;u&gt;ma_bm&lt;/u&gt;" style="ellipse;whiteSpace=wrap;html=1;fillColor=#ffe6cc;strokeColor=#d79b00;" vertex="1" parent="1">
          <mxGeometry x="120.84" y="1990" width="110" height="60" as="geometry" />
        </mxCell>
        <mxCell id="nJHEYNVm-RdAh5uVIcio-32" value="" style="endArrow=none;html=1;rounded=0;exitX=0.546;exitY=0.003;exitDx=0;exitDy=0;exitPerimeter=0;entryX=0.033;entryY=0.578;entryDx=0;entryDy=0;entryPerimeter=0;" edge="1" parent="1" source="nJHEYNVm-RdAh5uVIcio-1" target="nJHEYNVm-RdAh5uVIcio-31">
          <mxGeometry width="50" height="50" relative="1" as="geometry">
            <mxPoint x="160" y="2140" as="sourcePoint" />
            <mxPoint x="140" y="2050" as="targetPoint" />
          </mxGeometry>
        </mxCell>
        <mxCell id="nJHEYNVm-RdAh5uVIcio-33" value="" style="endArrow=none;html=1;rounded=0;entryX=0.605;entryY=1.015;entryDx=0;entryDy=0;entryPerimeter=0;exitX=0.448;exitY=0.009;exitDx=0;exitDy=0;exitPerimeter=0;" edge="1" parent="1" source="nJHEYNVm-RdAh5uVIcio-3" target="nJHEYNVm-RdAh5uVIcio-35">
          <mxGeometry width="50" height="50" relative="1" as="geometry">
            <mxPoint x="-110" y="1850" as="sourcePoint" />
            <mxPoint x="-60" y="1800" as="targetPoint" />
          </mxGeometry>
        </mxCell>
        <mxCell id="nJHEYNVm-RdAh5uVIcio-35" value="so_nha" style="ellipse;whiteSpace=wrap;html=1;" vertex="1" parent="1">
          <mxGeometry x="-310" y="1750" width="110" height="60" as="geometry" />
        </mxCell>
        <mxCell id="nJHEYNVm-RdAh5uVIcio-36" value="duong" style="ellipse;whiteSpace=wrap;html=1;" vertex="1" parent="1">
          <mxGeometry x="-220" y="1720" width="110" height="60" as="geometry" />
        </mxCell>
        <mxCell id="nJHEYNVm-RdAh5uVIcio-37" value="quan" style="ellipse;whiteSpace=wrap;html=1;" vertex="1" parent="1">
          <mxGeometry x="-130" y="1730" width="110" height="60" as="geometry" />
        </mxCell>
        <mxCell id="nJHEYNVm-RdAh5uVIcio-38" value="thanh_pho" style="ellipse;whiteSpace=wrap;html=1;" vertex="1" parent="1">
          <mxGeometry x="-25" y="1750" width="110" height="60" as="geometry" />
        </mxCell>
        <mxCell id="nJHEYNVm-RdAh5uVIcio-42" value="" style="endArrow=none;html=1;rounded=0;entryX=0.464;entryY=1.044;entryDx=0;entryDy=0;entryPerimeter=0;exitX=0.454;exitY=0.055;exitDx=0;exitDy=0;exitPerimeter=0;" edge="1" parent="1" source="nJHEYNVm-RdAh5uVIcio-3" target="nJHEYNVm-RdAh5uVIcio-36">
          <mxGeometry width="50" height="50" relative="1" as="geometry">
            <mxPoint x="-120" y="1880" as="sourcePoint" />
            <mxPoint x="-70" y="1830" as="targetPoint" />
          </mxGeometry>
        </mxCell>
        <mxCell id="nJHEYNVm-RdAh5uVIcio-43" value="" style="endArrow=none;html=1;rounded=0;exitX=0.5;exitY=0;exitDx=0;exitDy=0;entryX=0.291;entryY=0.98;entryDx=0;entryDy=0;entryPerimeter=0;" edge="1" parent="1" source="nJHEYNVm-RdAh5uVIcio-3" target="nJHEYNVm-RdAh5uVIcio-37">
          <mxGeometry width="50" height="50" relative="1" as="geometry">
            <mxPoint x="-75" y="1860" as="sourcePoint" />
            <mxPoint x="-25" y="1810" as="targetPoint" />
          </mxGeometry>
        </mxCell>
        <mxCell id="nJHEYNVm-RdAh5uVIcio-46" value="" style="endArrow=none;html=1;rounded=0;entryX=0.208;entryY=0.9;entryDx=0;entryDy=0;entryPerimeter=0;exitX=0.5;exitY=0;exitDx=0;exitDy=0;" edge="1" parent="1" source="nJHEYNVm-RdAh5uVIcio-3" target="nJHEYNVm-RdAh5uVIcio-38">
          <mxGeometry width="50" height="50" relative="1" as="geometry">
            <mxPoint x="-100" y="1860" as="sourcePoint" />
            <mxPoint x="-50" y="1810" as="targetPoint" />
          </mxGeometry>
        </mxCell>
        <mxCell id="nJHEYNVm-RdAh5uVIcio-47" value="phong_bm" style="ellipse;whiteSpace=wrap;html=1;" vertex="1" parent="1">
          <mxGeometry x="-420" y="2270" width="110" height="60" as="geometry" />
        </mxCell>
        <mxCell id="nJHEYNVm-RdAh5uVIcio-48" value="" style="endArrow=none;html=1;rounded=0;entryX=0;entryY=1;entryDx=0;entryDy=0;exitX=0.368;exitY=-0.002;exitDx=0;exitDy=0;exitPerimeter=0;" edge="1" parent="1" source="nJHEYNVm-RdAh5uVIcio-25" target="nJHEYNVm-RdAh5uVIcio-47">
          <mxGeometry width="50" height="50" relative="1" as="geometry">
            <mxPoint x="39.16" y="2290" as="sourcePoint" />
            <mxPoint x="89.16" y="2240" as="targetPoint" />
          </mxGeometry>
        </mxCell>
        <mxCell id="nJHEYNVm-RdAh5uVIcio-50" value="dien_thoai" style="ellipse;whiteSpace=wrap;html=1;" vertex="1" parent="1">
          <mxGeometry x="-420" y="2190" width="110" height="60" as="geometry" />
        </mxCell>
        <mxCell id="nJHEYNVm-RdAh5uVIcio-51" value="" style="endArrow=none;html=1;rounded=0;exitX=0.379;exitY=-0.043;exitDx=0;exitDy=0;exitPerimeter=0;entryX=0;entryY=0.667;entryDx=0;entryDy=0;entryPerimeter=0;" edge="1" parent="1" source="nJHEYNVm-RdAh5uVIcio-25" target="nJHEYNVm-RdAh5uVIcio-50">
          <mxGeometry width="50" height="50" relative="1" as="geometry">
            <mxPoint x="349.16" y="2150" as="sourcePoint" />
            <mxPoint x="399.16" y="2100" as="targetPoint" />
          </mxGeometry>
        </mxCell>
        <mxCell id="nJHEYNVm-RdAh5uVIcio-52" value="&lt;div&gt;thongtin_truongbm&lt;/div&gt;" style="rounded=0;whiteSpace=wrap;html=1;" vertex="1" parent="1">
          <mxGeometry x="185.00000000000003" y="2350" width="120" height="60" as="geometry" />
        </mxCell>
        <mxCell id="nJHEYNVm-RdAh5uVIcio-54" value="ma_gv" style="ellipse;whiteSpace=wrap;html=1;fillColor=#ffe6cc;strokeColor=#d79b00;" vertex="1" parent="1">
          <mxGeometry x="83.66" y="2222.73" width="110" height="60" as="geometry" />
        </mxCell>
        <mxCell id="nJHEYNVm-RdAh5uVIcio-55" value="" style="endArrow=none;html=1;rounded=0;entryX=0.5;entryY=1;entryDx=0;entryDy=0;exitX=0.461;exitY=-0.008;exitDx=0;exitDy=0;exitPerimeter=0;" edge="1" parent="1" source="nJHEYNVm-RdAh5uVIcio-52" target="nJHEYNVm-RdAh5uVIcio-54">
          <mxGeometry width="50" height="50" relative="1" as="geometry">
            <mxPoint x="247.81999999999985" y="2342.91" as="sourcePoint" />
            <mxPoint x="133.66" y="2312.73" as="targetPoint" />
          </mxGeometry>
        </mxCell>
        <mxCell id="nJHEYNVm-RdAh5uVIcio-56" value="ngay_nhan_chuc" style="ellipse;whiteSpace=wrap;html=1;" vertex="1" parent="1">
          <mxGeometry x="195" y="2180" width="110" height="60" as="geometry" />
        </mxCell>
        <mxCell id="nJHEYNVm-RdAh5uVIcio-61" value="" style="endArrow=none;html=1;rounded=0;entryX=0.337;entryY=1.044;entryDx=0;entryDy=0;entryPerimeter=0;" edge="1" parent="1" target="nJHEYNVm-RdAh5uVIcio-56">
          <mxGeometry width="50" height="50" relative="1" as="geometry">
            <mxPoint x="240" y="2350" as="sourcePoint" />
            <mxPoint x="276.54999999999995" y="2272.73" as="targetPoint" />
          </mxGeometry>
        </mxCell>
        <mxCell id="nJHEYNVm-RdAh5uVIcio-62" value="khoa" style="rounded=0;whiteSpace=wrap;html=1;fillColor=#FFFF00;" vertex="1" parent="1">
          <mxGeometry x="-220" y="2560" width="120" height="60" as="geometry" />
        </mxCell>
        <mxCell id="nJHEYNVm-RdAh5uVIcio-63" value="&lt;u&gt;ma_khoa&lt;/u&gt;" style="ellipse;whiteSpace=wrap;html=1;fillColor=#f8cecc;strokeColor=#b85450;" vertex="1" parent="1">
          <mxGeometry x="-320" y="2450" width="110" height="60" as="geometry" />
        </mxCell>
        <mxCell id="nJHEYNVm-RdAh5uVIcio-64" value="ten_khoa" style="ellipse;whiteSpace=wrap;html=1;" vertex="1" parent="1">
          <mxGeometry x="-240.84" y="2390" width="110" height="60" as="geometry" />
        </mxCell>
        <mxCell id="nJHEYNVm-RdAh5uVIcio-65" value="nam_thanh_lap" style="ellipse;whiteSpace=wrap;html=1;" vertex="1" parent="1">
          <mxGeometry x="-170" y="2430" width="110" height="60" as="geometry" />
        </mxCell>
        <mxCell id="nJHEYNVm-RdAh5uVIcio-66" value="phong_lam_viec" style="ellipse;whiteSpace=wrap;html=1;" vertex="1" parent="1">
          <mxGeometry x="-65" y="2470" width="110" height="60" as="geometry" />
        </mxCell>
        <mxCell id="nJHEYNVm-RdAh5uVIcio-67" value="ma_gv" style="ellipse;whiteSpace=wrap;html=1;fillColor=#ffe6cc;strokeColor=#d79b00;" vertex="1" parent="1">
          <mxGeometry x="59.16" y="2480" width="110" height="60" as="geometry" />
        </mxCell>
        <mxCell id="nJHEYNVm-RdAh5uVIcio-69" value="thongtin_truongkhoa" style="rounded=0;whiteSpace=wrap;html=1;fillColor=#FFFF00;" vertex="1" parent="1">
          <mxGeometry x="204.99999999999997" y="2590" width="120" height="60" as="geometry" />
        </mxCell>
        <mxCell id="nJHEYNVm-RdAh5uVIcio-70" value="" style="endArrow=none;html=1;rounded=0;exitX=0.3;exitY=-0.025;exitDx=0;exitDy=0;exitPerimeter=0;entryX=0.5;entryY=1;entryDx=0;entryDy=0;" edge="1" parent="1" source="nJHEYNVm-RdAh5uVIcio-62" target="nJHEYNVm-RdAh5uVIcio-63">
          <mxGeometry width="50" height="50" relative="1" as="geometry">
            <mxPoint x="-94" y="2514.5" as="sourcePoint" />
            <mxPoint x="-220" y="2465.5" as="targetPoint" />
          </mxGeometry>
        </mxCell>
        <mxCell id="nJHEYNVm-RdAh5uVIcio-71" value="" style="endArrow=none;html=1;rounded=0;entryX=0.407;entryY=1.003;entryDx=0;entryDy=0;entryPerimeter=0;exitX=0.33;exitY=-0.043;exitDx=0;exitDy=0;exitPerimeter=0;" edge="1" parent="1" source="nJHEYNVm-RdAh5uVIcio-62" target="nJHEYNVm-RdAh5uVIcio-64">
          <mxGeometry width="50" height="50" relative="1" as="geometry">
            <mxPoint x="-140.83999999999997" y="2480" as="sourcePoint" />
            <mxPoint x="-90.83999999999997" y="2430" as="targetPoint" />
          </mxGeometry>
        </mxCell>
        <mxCell id="nJHEYNVm-RdAh5uVIcio-72" value="" style="endArrow=none;html=1;rounded=0;exitX=0.368;exitY=-0.054;exitDx=0;exitDy=0;exitPerimeter=0;" edge="1" parent="1" source="nJHEYNVm-RdAh5uVIcio-62" target="nJHEYNVm-RdAh5uVIcio-65">
          <mxGeometry width="50" height="50" relative="1" as="geometry">
            <mxPoint x="-95" y="2500" as="sourcePoint" />
            <mxPoint x="-45" y="2450" as="targetPoint" />
          </mxGeometry>
        </mxCell>
        <mxCell id="nJHEYNVm-RdAh5uVIcio-73" value="" style="endArrow=none;html=1;rounded=0;exitX=0.396;exitY=-0.043;exitDx=0;exitDy=0;exitPerimeter=0;entryX=0;entryY=1;entryDx=0;entryDy=0;" edge="1" parent="1" source="nJHEYNVm-RdAh5uVIcio-62" target="nJHEYNVm-RdAh5uVIcio-66">
          <mxGeometry width="50" height="50" relative="1" as="geometry">
            <mxPoint x="140" y="2460" as="sourcePoint" />
            <mxPoint x="190" y="2410" as="targetPoint" />
          </mxGeometry>
        </mxCell>
        <mxCell id="nJHEYNVm-RdAh5uVIcio-74" value="" style="endArrow=none;html=1;rounded=0;exitX=0.615;exitY=1.015;exitDx=0;exitDy=0;exitPerimeter=0;entryX=0.398;entryY=0.021;entryDx=0;entryDy=0;entryPerimeter=0;" edge="1" parent="1" source="nJHEYNVm-RdAh5uVIcio-67" target="nJHEYNVm-RdAh5uVIcio-69">
          <mxGeometry width="50" height="50" relative="1" as="geometry">
            <mxPoint x="250" y="2530" as="sourcePoint" />
            <mxPoint x="300" y="2480" as="targetPoint" />
          </mxGeometry>
        </mxCell>
        <mxCell id="nJHEYNVm-RdAh5uVIcio-75" value="ngay_nhan_chuc" style="ellipse;whiteSpace=wrap;html=1;" vertex="1" parent="1">
          <mxGeometry x="180" y="2460" width="110" height="60" as="geometry" />
        </mxCell>
        <mxCell id="nJHEYNVm-RdAh5uVIcio-76" value="" style="endArrow=none;html=1;rounded=0;entryX=0.414;entryY=1.026;entryDx=0;entryDy=0;entryPerimeter=0;exitX=0.369;exitY=0.009;exitDx=0;exitDy=0;exitPerimeter=0;" edge="1" parent="1" source="nJHEYNVm-RdAh5uVIcio-69" target="nJHEYNVm-RdAh5uVIcio-75">
          <mxGeometry width="50" height="50" relative="1" as="geometry">
            <mxPoint x="295" y="2570" as="sourcePoint" />
            <mxPoint x="345" y="2520" as="targetPoint" />
          </mxGeometry>
        </mxCell>
        <mxCell id="nJHEYNVm-RdAh5uVIcio-77" value="&lt;u&gt;ma_khoa&lt;/u&gt;" style="ellipse;whiteSpace=wrap;html=1;fillColor=#ffe6cc;strokeColor=#d79b00;" vertex="1" parent="1">
          <mxGeometry x="309.15999999999997" y="2490" width="110" height="60" as="geometry" />
        </mxCell>
        <mxCell id="nJHEYNVm-RdAh5uVIcio-78" value="" style="endArrow=none;html=1;rounded=0;exitX=0.392;exitY=0.003;exitDx=0;exitDy=0;exitPerimeter=0;" edge="1" parent="1" source="nJHEYNVm-RdAh5uVIcio-69">
          <mxGeometry width="50" height="50" relative="1" as="geometry">
            <mxPoint x="275" y="2590" as="sourcePoint" />
            <mxPoint x="325" y="2540" as="targetPoint" />
          </mxGeometry>
        </mxCell>
        <mxCell id="nJHEYNVm-RdAh5uVIcio-79" value="&lt;u&gt;ma_bm&lt;/u&gt;" style="ellipse;whiteSpace=wrap;html=1;fillColor=#ffe6cc;strokeColor=#d79b00;" vertex="1" parent="1">
          <mxGeometry x="370" y="2198" width="110" height="60" as="geometry" />
        </mxCell>
        <mxCell id="nJHEYNVm-RdAh5uVIcio-80" value="" style="endArrow=none;html=1;rounded=0;exitX=0.461;exitY=-0.02;exitDx=0;exitDy=0;exitPerimeter=0;entryX=0.219;entryY=0.928;entryDx=0;entryDy=0;entryPerimeter=0;" edge="1" parent="1" source="nJHEYNVm-RdAh5uVIcio-52" target="nJHEYNVm-RdAh5uVIcio-79">
          <mxGeometry width="50" height="50" relative="1" as="geometry">
            <mxPoint x="246.2599999999999" y="2343.27" as="sourcePoint" />
            <mxPoint x="386.33000000000004" y="2272.25" as="targetPoint" />
          </mxGeometry>
        </mxCell>
        <mxCell id="nJHEYNVm-RdAh5uVIcio-81" value="de_tai" style="rounded=0;whiteSpace=wrap;html=1;fillColor=#FFFF00;" vertex="1" parent="1">
          <mxGeometry x="-260" y="2930" width="120" height="60" as="geometry" />
        </mxCell>
        <mxCell id="nJHEYNVm-RdAh5uVIcio-82" value="&lt;u&gt;ma_de_tai&lt;/u&gt;" style="ellipse;whiteSpace=wrap;html=1;fillColor=#f8cecc;strokeColor=#b85450;" vertex="1" parent="1">
          <mxGeometry x="-440.84000000000003" y="2770" width="110" height="60" as="geometry" />
        </mxCell>
        <mxCell id="nJHEYNVm-RdAh5uVIcio-83" value="ten_de_tai" style="ellipse;whiteSpace=wrap;html=1;" vertex="1" parent="1">
          <mxGeometry x="-390.84000000000003" y="2710" width="110" height="60" as="geometry" />
        </mxCell>
        <mxCell id="nJHEYNVm-RdAh5uVIcio-84" value="cap_quan_li" style="ellipse;whiteSpace=wrap;html=1;" vertex="1" parent="1">
          <mxGeometry x="-120.84" y="2640" width="110" height="60" as="geometry" />
        </mxCell>
        <mxCell id="nJHEYNVm-RdAh5uVIcio-85" value="kinh_phi" style="ellipse;whiteSpace=wrap;html=1;" vertex="1" parent="1">
          <mxGeometry x="-110.84" y="2800" width="110" height="60" as="geometry" />
        </mxCell>
        <mxCell id="nJHEYNVm-RdAh5uVIcio-86" value="ngay_bat_dau" style="ellipse;whiteSpace=wrap;html=1;" vertex="1" parent="1">
          <mxGeometry x="-330.84000000000003" y="2640" width="110" height="60" as="geometry" />
        </mxCell>
        <mxCell id="nJHEYNVm-RdAh5uVIcio-87" value="ngay_ket_thuc" style="ellipse;whiteSpace=wrap;html=1;" vertex="1" parent="1">
          <mxGeometry x="-241.68" y="2700" width="110" height="60" as="geometry" />
        </mxCell>
        <mxCell id="nJHEYNVm-RdAh5uVIcio-89" value="" style="endArrow=none;html=1;rounded=0;entryX=0.807;entryY=0.854;entryDx=0;entryDy=0;exitX=0.415;exitY=-0.008;exitDx=0;exitDy=0;exitPerimeter=0;entryPerimeter=0;" edge="1" parent="1" source="nJHEYNVm-RdAh5uVIcio-81" target="nJHEYNVm-RdAh5uVIcio-82">
          <mxGeometry width="50" height="50" relative="1" as="geometry">
            <mxPoint x="9.159999999999997" y="2650" as="sourcePoint" />
            <mxPoint x="-336.9080812928411" y="2821.1907911950357" as="targetPoint" />
          </mxGeometry>
        </mxCell>
        <mxCell id="nJHEYNVm-RdAh5uVIcio-90" value="" style="endArrow=none;html=1;rounded=0;entryX=0.5;entryY=1;entryDx=0;entryDy=0;exitX=0.441;exitY=0.038;exitDx=0;exitDy=0;exitPerimeter=0;" edge="1" parent="1" source="nJHEYNVm-RdAh5uVIcio-81" target="nJHEYNVm-RdAh5uVIcio-83">
          <mxGeometry width="50" height="50" relative="1" as="geometry">
            <mxPoint x="-210.84" y="2850" as="sourcePoint" />
            <mxPoint x="-151.68" y="2760" as="targetPoint" />
          </mxGeometry>
        </mxCell>
        <mxCell id="nJHEYNVm-RdAh5uVIcio-92" value="" style="endArrow=none;html=1;rounded=0;entryX=0.371;entryY=1;entryDx=0;entryDy=0;entryPerimeter=0;exitX=0.5;exitY=0;exitDx=0;exitDy=0;" edge="1" parent="1" source="nJHEYNVm-RdAh5uVIcio-81" target="nJHEYNVm-RdAh5uVIcio-86">
          <mxGeometry width="50" height="50" relative="1" as="geometry">
            <mxPoint x="-210.84" y="2820" as="sourcePoint" />
            <mxPoint x="-140.84" y="2760" as="targetPoint" />
          </mxGeometry>
        </mxCell>
        <mxCell id="nJHEYNVm-RdAh5uVIcio-93" value="" style="endArrow=none;html=1;rounded=0;entryX=0.308;entryY=1.021;entryDx=0;entryDy=0;entryPerimeter=0;exitX=0.445;exitY=-0.02;exitDx=0;exitDy=0;exitPerimeter=0;" edge="1" parent="1" source="nJHEYNVm-RdAh5uVIcio-81" target="nJHEYNVm-RdAh5uVIcio-87">
          <mxGeometry width="50" height="50" relative="1" as="geometry">
            <mxPoint x="-200.84" y="2880" as="sourcePoint" />
            <mxPoint x="-210.84" y="2710" as="targetPoint" />
          </mxGeometry>
        </mxCell>
        <mxCell id="nJHEYNVm-RdAh5uVIcio-98" value="" style="endArrow=none;html=1;rounded=0;entryX=0.404;entryY=1.032;entryDx=0;entryDy=0;entryPerimeter=0;exitX=0.5;exitY=0;exitDx=0;exitDy=0;" edge="1" parent="1" source="nJHEYNVm-RdAh5uVIcio-81" target="nJHEYNVm-RdAh5uVIcio-84">
          <mxGeometry width="50" height="50" relative="1" as="geometry">
            <mxPoint x="-210.84" y="2820" as="sourcePoint" />
            <mxPoint x="-200.84" y="2720" as="targetPoint" />
          </mxGeometry>
        </mxCell>
        <mxCell id="nJHEYNVm-RdAh5uVIcio-99" value="" style="endArrow=none;html=1;rounded=0;exitX=0;exitY=0.5;exitDx=0;exitDy=0;entryX=0.5;entryY=0;entryDx=0;entryDy=0;" edge="1" parent="1" source="nJHEYNVm-RdAh5uVIcio-85" target="nJHEYNVm-RdAh5uVIcio-81">
          <mxGeometry width="50" height="50" relative="1" as="geometry">
            <mxPoint x="-70.84" y="2810" as="sourcePoint" />
            <mxPoint x="-206.68" y="2810" as="targetPoint" />
            <Array as="points" />
          </mxGeometry>
        </mxCell>
        <mxCell id="nJHEYNVm-RdAh5uVIcio-100" value="chu_de" style="rounded=0;whiteSpace=wrap;html=1;fillColor=#FFFF00;" vertex="1" parent="1">
          <mxGeometry x="270" y="2800" width="120" height="60" as="geometry" />
        </mxCell>
        <mxCell id="nJHEYNVm-RdAh5uVIcio-101" value="&lt;u&gt;ma_chu_de&lt;/u&gt;" style="ellipse;whiteSpace=wrap;html=1;fillColor=#f8cecc;strokeColor=#b85450;" vertex="1" parent="1">
          <mxGeometry x="190" y="2710" width="110" height="60" as="geometry" />
        </mxCell>
        <mxCell id="nJHEYNVm-RdAh5uVIcio-103" value="&lt;u&gt;ten_chu_de&lt;/u&gt;" style="ellipse;whiteSpace=wrap;html=1;" vertex="1" parent="1">
          <mxGeometry x="315" y="2680" width="110" height="60" as="geometry" />
        </mxCell>
        <mxCell id="nJHEYNVm-RdAh5uVIcio-104" value="" style="endArrow=none;html=1;rounded=0;entryX=0.5;entryY=1;entryDx=0;entryDy=0;exitX=0.38;exitY=0.003;exitDx=0;exitDy=0;exitPerimeter=0;" edge="1" parent="1" source="nJHEYNVm-RdAh5uVIcio-100" target="nJHEYNVm-RdAh5uVIcio-101">
          <mxGeometry width="50" height="50" relative="1" as="geometry">
            <mxPoint x="140" y="2690" as="sourcePoint" />
            <mxPoint x="190" y="2640" as="targetPoint" />
          </mxGeometry>
        </mxCell>
        <mxCell id="nJHEYNVm-RdAh5uVIcio-105" value="" style="endArrow=none;html=1;rounded=0;entryX=0.318;entryY=1.021;entryDx=0;entryDy=0;entryPerimeter=0;exitX=0.373;exitY=0.021;exitDx=0;exitDy=0;exitPerimeter=0;" edge="1" parent="1" source="nJHEYNVm-RdAh5uVIcio-100" target="nJHEYNVm-RdAh5uVIcio-103">
          <mxGeometry width="50" height="50" relative="1" as="geometry">
            <mxPoint x="330" y="2810" as="sourcePoint" />
            <mxPoint x="255" y="2780" as="targetPoint" />
          </mxGeometry>
        </mxCell>
        <mxCell id="nJHEYNVm-RdAh5uVIcio-106" value="cong_viec" style="rounded=0;whiteSpace=wrap;html=1;fillColor=#FFFF00;" vertex="1" parent="1">
          <mxGeometry x="100.33" y="3030" width="120" height="60" as="geometry" />
        </mxCell>
        <mxCell id="nJHEYNVm-RdAh5uVIcio-107" value="&lt;u&gt;ma_cong_viec&lt;/u&gt;" style="ellipse;whiteSpace=wrap;html=1;fillColor=#f8cecc;strokeColor=#b85450;" vertex="1" parent="1">
          <mxGeometry x="-30" y="2940" width="110" height="60" as="geometry" />
        </mxCell>
        <mxCell id="nJHEYNVm-RdAh5uVIcio-108" value="ten_de_tai" style="ellipse;whiteSpace=wrap;html=1;" vertex="1" parent="1">
          <mxGeometry x="70" y="2900" width="110" height="60" as="geometry" />
        </mxCell>
        <mxCell id="nJHEYNVm-RdAh5uVIcio-109" value="" style="endArrow=none;html=1;rounded=0;entryX=0.619;entryY=0.975;entryDx=0;entryDy=0;entryPerimeter=0;exitX=0.385;exitY=0.061;exitDx=0;exitDy=0;exitPerimeter=0;" edge="1" parent="1" source="nJHEYNVm-RdAh5uVIcio-106" target="nJHEYNVm-RdAh5uVIcio-107">
          <mxGeometry width="50" height="50" relative="1" as="geometry">
            <mxPoint x="200" y="3040" as="sourcePoint" />
            <mxPoint x="250" y="2990" as="targetPoint" />
          </mxGeometry>
        </mxCell>
        <mxCell id="nJHEYNVm-RdAh5uVIcio-110" value="" style="endArrow=none;html=1;rounded=0;entryX=0.409;entryY=1;entryDx=0;entryDy=0;entryPerimeter=0;exitX=0.396;exitY=0.015;exitDx=0;exitDy=0;exitPerimeter=0;" edge="1" parent="1" source="nJHEYNVm-RdAh5uVIcio-106" target="nJHEYNVm-RdAh5uVIcio-108">
          <mxGeometry width="50" height="50" relative="1" as="geometry">
            <mxPoint x="250" y="3040" as="sourcePoint" />
            <mxPoint x="300" y="2990" as="targetPoint" />
          </mxGeometry>
        </mxCell>
        <mxCell id="nJHEYNVm-RdAh5uVIcio-111" value="ngay_bat_dau" style="ellipse;whiteSpace=wrap;html=1;" vertex="1" parent="1">
          <mxGeometry x="175" y="2870" width="110" height="60" as="geometry" />
        </mxCell>
        <mxCell id="nJHEYNVm-RdAh5uVIcio-112" value="ngay_ket_thuc" style="ellipse;whiteSpace=wrap;html=1;" vertex="1" parent="1">
          <mxGeometry x="220.33000000000004" y="2940" width="110" height="60" as="geometry" />
        </mxCell>
        <mxCell id="nJHEYNVm-RdAh5uVIcio-113" value="" style="endArrow=none;html=1;rounded=0;entryX=0.353;entryY=0.946;entryDx=0;entryDy=0;entryPerimeter=0;exitX=0.402;exitY=0.026;exitDx=0;exitDy=0;exitPerimeter=0;" edge="1" parent="1" source="nJHEYNVm-RdAh5uVIcio-106" target="nJHEYNVm-RdAh5uVIcio-111">
          <mxGeometry width="50" height="50" relative="1" as="geometry">
            <mxPoint x="237.89" y="3010" as="sourcePoint" />
            <mxPoint x="287.89" y="2960" as="targetPoint" />
          </mxGeometry>
        </mxCell>
        <mxCell id="nJHEYNVm-RdAh5uVIcio-114" value="" style="endArrow=none;html=1;rounded=0;entryX=0;entryY=0.5;entryDx=0;entryDy=0;exitX=0.437;exitY=0.038;exitDx=0;exitDy=0;exitPerimeter=0;" edge="1" parent="1" source="nJHEYNVm-RdAh5uVIcio-106" target="nJHEYNVm-RdAh5uVIcio-112">
          <mxGeometry width="50" height="50" relative="1" as="geometry">
            <mxPoint x="260" y="3030" as="sourcePoint" />
            <mxPoint x="310" y="2980" as="targetPoint" />
          </mxGeometry>
        </mxCell>
        <mxCell id="nJHEYNVm-RdAh5uVIcio-115" value="chitiet_congviec" style="rounded=0;whiteSpace=wrap;html=1;fillColor=#FFFF00;" vertex="1" parent="1">
          <mxGeometry x="400" y="3030" width="120" height="60" as="geometry" />
        </mxCell>
        <mxCell id="nJHEYNVm-RdAh5uVIcio-116" value="" style="endArrow=none;html=1;rounded=0;entryX=0.346;entryY=1.021;entryDx=0;entryDy=0;entryPerimeter=0;exitX=0.416;exitY=0.038;exitDx=0;exitDy=0;exitPerimeter=0;" edge="1" parent="1" source="nJHEYNVm-RdAh5uVIcio-115" target="nJHEYNVm-RdAh5uVIcio-118">
          <mxGeometry width="50" height="50" relative="1" as="geometry">
            <mxPoint x="505" y="3040" as="sourcePoint" />
            <mxPoint x="555" y="2990" as="targetPoint" />
          </mxGeometry>
        </mxCell>
        <mxCell id="nJHEYNVm-RdAh5uVIcio-117" value="&lt;u&gt;ma_cong_viec&lt;/u&gt;" style="ellipse;whiteSpace=wrap;html=1;fillColor=#ffe6cc;strokeColor=#d79b00;" vertex="1" parent="1">
          <mxGeometry x="350" y="2920" width="110" height="60" as="geometry" />
        </mxCell>
        <mxCell id="nJHEYNVm-RdAh5uVIcio-118" value="&lt;u&gt;ma_gv&lt;/u&gt;" style="ellipse;whiteSpace=wrap;html=1;fillColor=#ffe6cc;strokeColor=#d79b00;" vertex="1" parent="1">
          <mxGeometry x="465" y="2920" width="110" height="60" as="geometry" />
        </mxCell>
        <mxCell id="nJHEYNVm-RdAh5uVIcio-119" value="" style="endArrow=none;html=1;rounded=0;entryX=0.445;entryY=0.986;entryDx=0;entryDy=0;entryPerimeter=0;" edge="1" parent="1" target="nJHEYNVm-RdAh5uVIcio-117">
          <mxGeometry width="50" height="50" relative="1" as="geometry">
            <mxPoint x="450" y="3030" as="sourcePoint" />
            <mxPoint x="340" y="3035" as="targetPoint" />
          </mxGeometry>
        </mxCell>
        <mxCell id="nJHEYNVm-RdAh5uVIcio-120" value="phu-cap" style="ellipse;whiteSpace=wrap;html=1;" vertex="1" parent="1">
          <mxGeometry x="550" y="2970" width="110" height="60" as="geometry" />
        </mxCell>
        <mxCell id="nJHEYNVm-RdAh5uVIcio-121" value="" style="endArrow=none;html=1;rounded=0;entryX=0.091;entryY=0.833;entryDx=0;entryDy=0;entryPerimeter=0;exitX=0.5;exitY=0;exitDx=0;exitDy=0;" edge="1" parent="1" source="nJHEYNVm-RdAh5uVIcio-115" target="nJHEYNVm-RdAh5uVIcio-120">
          <mxGeometry width="50" height="50" relative="1" as="geometry">
            <mxPoint x="519.1600000000001" y="3100" as="sourcePoint" />
            <mxPoint x="569.1600000000001" y="3050" as="targetPoint" />
          </mxGeometry>
        </mxCell>
        <mxCell id="nJHEYNVm-RdAh5uVIcio-122" value="Có" style="rhombus;whiteSpace=wrap;html=1;" vertex="1" parent="1">
          <mxGeometry x="220.32999999999998" y="2050" width="80" height="80" as="geometry" />
        </mxCell>
        <mxCell id="nJHEYNVm-RdAh5uVIcio-123" value="" style="endArrow=none;html=1;rounded=0;exitX=1;exitY=0.5;exitDx=0;exitDy=0;" edge="1" parent="1" source="nJHEYNVm-RdAh5uVIcio-1">
          <mxGeometry width="50" height="50" relative="1" as="geometry">
            <mxPoint x="85" y="2100" as="sourcePoint" />
            <mxPoint x="220" y="2090" as="targetPoint" />
          </mxGeometry>
        </mxCell>
        <mxCell id="nJHEYNVm-RdAh5uVIcio-124" value="" style="endArrow=none;html=1;rounded=0;exitX=1;exitY=0.5;exitDx=0;exitDy=0;" edge="1" parent="1" source="nJHEYNVm-RdAh5uVIcio-122">
          <mxGeometry width="50" height="50" relative="1" as="geometry">
            <mxPoint x="315" y="2089.66" as="sourcePoint" />
            <mxPoint x="400" y="2090" as="targetPoint" />
          </mxGeometry>
        </mxCell>
        <mxCell id="nJHEYNVm-RdAh5uVIcio-126" value="1, n" style="text;html=1;align=center;verticalAlign=middle;resizable=0;points=[];autosize=1;strokeColor=none;fillColor=none;" vertex="1" parent="1">
          <mxGeometry x="105" y="2060" width="40" height="30" as="geometry" />
        </mxCell>
        <mxCell id="nJHEYNVm-RdAh5uVIcio-127" value="1, 1" style="text;html=1;align=center;verticalAlign=middle;resizable=0;points=[];autosize=1;strokeColor=none;fillColor=none;" vertex="1" parent="1">
          <mxGeometry x="360" y="2060" width="40" height="30" as="geometry" />
        </mxCell>
        <mxCell id="nJHEYNVm-RdAh5uVIcio-129" value="thuộc" style="rhombus;whiteSpace=wrap;html=1;" vertex="1" parent="1">
          <mxGeometry x="-90" y="2170" width="80" height="80" as="geometry" />
        </mxCell>
        <mxCell id="nJHEYNVm-RdAh5uVIcio-130" value="" style="endArrow=none;html=1;rounded=0;entryX=0.292;entryY=1;entryDx=0;entryDy=0;entryPerimeter=0;exitX=0.5;exitY=0;exitDx=0;exitDy=0;" edge="1" parent="1" source="nJHEYNVm-RdAh5uVIcio-129" target="nJHEYNVm-RdAh5uVIcio-1">
          <mxGeometry width="50" height="50" relative="1" as="geometry">
            <mxPoint x="30" y="2180" as="sourcePoint" />
            <mxPoint x="80" y="2130" as="targetPoint" />
          </mxGeometry>
        </mxCell>
        <mxCell id="nJHEYNVm-RdAh5uVIcio-131" value="" style="endArrow=none;html=1;rounded=0;entryX=0.5;entryY=1;entryDx=0;entryDy=0;exitX=0.391;exitY=-0.002;exitDx=0;exitDy=0;exitPerimeter=0;" edge="1" parent="1" source="nJHEYNVm-RdAh5uVIcio-25" target="nJHEYNVm-RdAh5uVIcio-129">
          <mxGeometry width="50" height="50" relative="1" as="geometry">
            <mxPoint x="-50" y="2290" as="sourcePoint" />
            <mxPoint y="2240" as="targetPoint" />
          </mxGeometry>
        </mxCell>
        <mxCell id="nJHEYNVm-RdAh5uVIcio-132" value="1, n" style="text;html=1;align=center;verticalAlign=middle;resizable=0;points=[];autosize=1;strokeColor=none;fillColor=none;" vertex="1" parent="1">
          <mxGeometry x="-120" y="2258" width="40" height="30" as="geometry" />
        </mxCell>
        <mxCell id="nJHEYNVm-RdAh5uVIcio-133" value="1, 1" style="text;html=1;align=center;verticalAlign=middle;resizable=0;points=[];autosize=1;strokeColor=none;fillColor=none;" vertex="1" parent="1">
          <mxGeometry x="-60.84" y="2130" width="40" height="30" as="geometry" />
        </mxCell>
        <mxCell id="nJHEYNVm-RdAh5uVIcio-134" value="Có" style="rhombus;whiteSpace=wrap;html=1;" vertex="1" parent="1">
          <mxGeometry x="25" y="2310" width="80" height="80" as="geometry" />
        </mxCell>
        <mxCell id="nJHEYNVm-RdAh5uVIcio-135" value="" style="endArrow=none;html=1;rounded=0;entryX=0;entryY=0.5;entryDx=0;entryDy=0;exitX=1;exitY=0.5;exitDx=0;exitDy=0;" edge="1" parent="1" source="nJHEYNVm-RdAh5uVIcio-25" target="nJHEYNVm-RdAh5uVIcio-134">
          <mxGeometry width="50" height="50" relative="1" as="geometry">
            <mxPoint x="30" y="2340" as="sourcePoint" />
            <mxPoint x="80" y="2290" as="targetPoint" />
          </mxGeometry>
        </mxCell>
        <mxCell id="nJHEYNVm-RdAh5uVIcio-136" value="" style="endArrow=none;html=1;rounded=0;entryX=0;entryY=0.5;entryDx=0;entryDy=0;exitX=1;exitY=0.5;exitDx=0;exitDy=0;" edge="1" parent="1" source="nJHEYNVm-RdAh5uVIcio-134" target="nJHEYNVm-RdAh5uVIcio-52">
          <mxGeometry width="50" height="50" relative="1" as="geometry">
            <mxPoint x="118.66" y="2350" as="sourcePoint" />
            <mxPoint x="193.66" y="2370" as="targetPoint" />
          </mxGeometry>
        </mxCell>
        <mxCell id="nJHEYNVm-RdAh5uVIcio-137" value="1, 1" style="text;html=1;align=center;verticalAlign=middle;resizable=0;points=[];autosize=1;strokeColor=none;fillColor=none;" vertex="1" parent="1">
          <mxGeometry x="-30" y="2308" width="40" height="30" as="geometry" />
        </mxCell>
        <mxCell id="nJHEYNVm-RdAh5uVIcio-138" value="1, 1" style="text;html=1;align=center;verticalAlign=middle;resizable=0;points=[];autosize=1;strokeColor=none;fillColor=none;" vertex="1" parent="1">
          <mxGeometry x="110" y="2338" width="40" height="30" as="geometry" />
        </mxCell>
        <mxCell id="nJHEYNVm-RdAh5uVIcio-139" value="Có" style="rhombus;whiteSpace=wrap;html=1;" vertex="1" parent="1">
          <mxGeometry x="5" y="2560" width="80" height="80" as="geometry" />
        </mxCell>
        <mxCell id="nJHEYNVm-RdAh5uVIcio-140" value="" style="endArrow=none;html=1;rounded=0;entryX=0;entryY=0.5;entryDx=0;entryDy=0;exitX=1;exitY=0.5;exitDx=0;exitDy=0;" edge="1" parent="1" source="nJHEYNVm-RdAh5uVIcio-62" target="nJHEYNVm-RdAh5uVIcio-139">
          <mxGeometry width="50" height="50" relative="1" as="geometry">
            <mxPoint x="-70" y="2580" as="sourcePoint" />
            <mxPoint x="60" y="2540" as="targetPoint" />
          </mxGeometry>
        </mxCell>
        <mxCell id="nJHEYNVm-RdAh5uVIcio-141" value="1, 1" style="text;html=1;align=center;verticalAlign=middle;resizable=0;points=[];autosize=1;strokeColor=none;fillColor=none;" vertex="1" parent="1">
          <mxGeometry x="140.32999999999998" y="2585" width="40" height="30" as="geometry" />
        </mxCell>
        <mxCell id="nJHEYNVm-RdAh5uVIcio-142" value="1, 1" style="text;html=1;align=center;verticalAlign=middle;resizable=0;points=[];autosize=1;strokeColor=none;fillColor=none;" vertex="1" parent="1">
          <mxGeometry x="-70" y="2568" width="40" height="30" as="geometry" />
        </mxCell>
        <mxCell id="nJHEYNVm-RdAh5uVIcio-143" value="" style="endArrow=none;html=1;rounded=0;entryX=0.007;entryY=0.394;entryDx=0;entryDy=0;exitX=1;exitY=0.5;exitDx=0;exitDy=0;entryPerimeter=0;" edge="1" parent="1" source="nJHEYNVm-RdAh5uVIcio-139" target="nJHEYNVm-RdAh5uVIcio-69">
          <mxGeometry width="50" height="50" relative="1" as="geometry">
            <mxPoint x="110" y="2630" as="sourcePoint" />
            <mxPoint x="190" y="2660" as="targetPoint" />
          </mxGeometry>
        </mxCell>
        <mxCell id="nJHEYNVm-RdAh5uVIcio-144" value="thuộc" style="rhombus;whiteSpace=wrap;html=1;" vertex="1" parent="1">
          <mxGeometry x="59.16" y="2770" width="80" height="80" as="geometry" />
        </mxCell>
        <mxCell id="nJHEYNVm-RdAh5uVIcio-145" value="" style="endArrow=none;html=1;rounded=0;entryX=0;entryY=0.5;entryDx=0;entryDy=0;exitX=1;exitY=0.5;exitDx=0;exitDy=0;" edge="1" parent="1" source="nJHEYNVm-RdAh5uVIcio-144" target="nJHEYNVm-RdAh5uVIcio-100">
          <mxGeometry width="50" height="50" relative="1" as="geometry">
            <mxPoint x="169" y="2803" as="sourcePoint" />
            <mxPoint x="290" y="2817" as="targetPoint" />
          </mxGeometry>
        </mxCell>
        <mxCell id="nJHEYNVm-RdAh5uVIcio-146" value="" style="endArrow=none;html=1;rounded=0;entryX=0;entryY=0.5;entryDx=0;entryDy=0;exitX=0.962;exitY=0.015;exitDx=0;exitDy=0;exitPerimeter=0;" edge="1" parent="1" source="nJHEYNVm-RdAh5uVIcio-81" target="nJHEYNVm-RdAh5uVIcio-144">
          <mxGeometry width="50" height="50" relative="1" as="geometry">
            <mxPoint x="-14.159999999999997" y="2880" as="sourcePoint" />
            <mxPoint x="116.84" y="2900" as="targetPoint" />
          </mxGeometry>
        </mxCell>
        <mxCell id="nJHEYNVm-RdAh5uVIcio-147" value="1, N" style="text;html=1;align=center;verticalAlign=middle;resizable=0;points=[];autosize=1;strokeColor=none;fillColor=none;" vertex="1" parent="1">
          <mxGeometry x="205" y="2798" width="50" height="30" as="geometry" />
        </mxCell>
        <mxCell id="nJHEYNVm-RdAh5uVIcio-148" value="1, 1" style="text;html=1;align=center;verticalAlign=middle;resizable=0;points=[];autosize=1;strokeColor=none;fillColor=none;" vertex="1" parent="1">
          <mxGeometry x="-140" y="2878" width="40" height="30" as="geometry" />
        </mxCell>
        <mxCell id="nJHEYNVm-RdAh5uVIcio-149" value="Gồm" style="rhombus;whiteSpace=wrap;html=1;" vertex="1" parent="1">
          <mxGeometry x="270" y="3020" width="80" height="80" as="geometry" />
        </mxCell>
        <mxCell id="nJHEYNVm-RdAh5uVIcio-150" value="" style="endArrow=none;html=1;rounded=0;entryX=0;entryY=0.5;entryDx=0;entryDy=0;exitX=1;exitY=0.5;exitDx=0;exitDy=0;" edge="1" parent="1" source="nJHEYNVm-RdAh5uVIcio-106" target="nJHEYNVm-RdAh5uVIcio-149">
          <mxGeometry width="50" height="50" relative="1" as="geometry">
            <mxPoint x="220.32999999999998" y="3160" as="sourcePoint" />
            <mxPoint x="270.33" y="3110" as="targetPoint" />
          </mxGeometry>
        </mxCell>
        <mxCell id="nJHEYNVm-RdAh5uVIcio-151" value="" style="endArrow=none;html=1;rounded=0;entryX=0;entryY=0.5;entryDx=0;entryDy=0;exitX=1;exitY=0.5;exitDx=0;exitDy=0;" edge="1" parent="1" source="nJHEYNVm-RdAh5uVIcio-149" target="nJHEYNVm-RdAh5uVIcio-115">
          <mxGeometry width="50" height="50" relative="1" as="geometry">
            <mxPoint x="370" y="3100" as="sourcePoint" />
            <mxPoint x="420" y="3100" as="targetPoint" />
          </mxGeometry>
        </mxCell>
        <mxCell id="nJHEYNVm-RdAh5uVIcio-152" value="1, N" style="text;html=1;align=center;verticalAlign=middle;resizable=0;points=[];autosize=1;strokeColor=none;fillColor=none;" vertex="1" parent="1">
          <mxGeometry x="225" y="3028" width="50" height="30" as="geometry" />
        </mxCell>
        <mxCell id="nJHEYNVm-RdAh5uVIcio-153" value="1, 1" style="text;html=1;align=center;verticalAlign=middle;resizable=0;points=[];autosize=1;strokeColor=none;fillColor=none;" vertex="1" parent="1">
          <mxGeometry x="350" y="3030" width="40" height="30" as="geometry" />
        </mxCell>
      </root>
    </mxGraphModel>
  </diagram>
</mxfile>
